{
  "accessors": [
    {
      "bufferView": 2,
      "componentType": 5126,
      "count": 52176,
      "max": [
        0.9602078795433044,
        0.13514378666877747,
        0.9602078795433044
      ],
      "min": [
        -0.9602078795433044,
        -0.13514378666877747,
        -0.9602078795433044
      ],
      "type": "VEC3"
    },
    {
      "bufferView": 2,
      "byteOffset": 626112,
      "componentType": 5126,
      "count": 52176,
      "max": [
        1.0,
        1.0,
        1.0
      ],
      "min": [
        -1.0,
        -1.0,
        -1.0
      ],
      "type": "VEC3"
    },
    {
      "bufferView": 1,
      "componentType": 5126,
      "count": 52176,
      "max": [
        0.864583432674408,
        1.0000001192092896
      ],
      "min": [
        0.0,
        0.0
      ],
      "type": "VEC2"
    },
    {
      "bufferView": 0,
      "componentType": 5125,
      "count": 224457,
      "type": "SCALAR"
    },
    {
      "bufferView": 2,
      "byteOffset": 1252224,
      "componentType": 5126,
      "count": 20470,
      "max": [
        0.9935951828956604,
        0.14219994843006134,
        0.9935951828956604
      ],
      "min": [
        -0.9935952425003052,
        -0.14219994843006134,
        -0.9935952425003052
      ],
      "type": "VEC3"
    },
    {
      "bufferView": 2,
      "byteOffset": 1497864,
      "componentType": 5126,
      "count": 20470,
      "max": [
        1.0,
        0.9999892711639404,
        0.9996896982192993
      ],
      "min": [
        -1.0,
        -0.9999892711639404,
        -0.9997661113739014
      ],
      "type": "VEC3"
    },
    {
      "bufferView": 1,
      "byteOffset": 417408,
      "componentType": 5126,
      "count": 20470,
      "max": [
        0.8220200538635254,
        0.6970201134681702
      ],
      "min": [
        0.0,
        0.0
      ],
      "type": "VEC2"
    },
    {
      "bufferView": 0,
      "byteOffset": 897828,
      "componentType": 5125,
      "count": 76416,
      "type": "SCALAR"
    },
    {
      "bufferView": 3,
      "componentType": 5126,
      "count": 240,
      "max": [
        10.0
      ],
      "min": [
        0.0416666679084301
      ],
      "type": "SCALAR"
    },
    {
      "bufferView": 4,
      "componentType": 5126,
      "count": 240,
      "max": [
        3.265813575126231e-08,
        0.8510027527809143,
        -0.0
      ],
      "min": [
        2.852791425311807e-08,
        0.6526426076889038,
        -0.0
      ],
      "type": "VEC3"
    },
    {
      "bufferView": 3,
      "byteOffset": 960,
      "componentType": 5126,
      "count": 240,
      "max": [
        10.0
      ],
      "min": [
        0.0416666679084301
      ],
      "type": "SCALAR"
    },
    {
      "bufferView": 5,
      "componentType": 5126,
      "count": 240,
      "max": [
        0.7071067690849304,
        0.7069705128669739,
        -3.0908619663705394e-08,
        0.7071067094802856
      ],
      "min": [
        -0.7069704532623291,
        -0.7071067690849304,
        -0.7071068286895752,
        3.0908616110991716e-08
      ],
      "type": "VEC4"
    },
    {
      "bufferView": 3,
      "byteOffset": 1920,
      "componentType": 5126,
      "count": 240,
      "max": [
        10.0
      ],
      "min": [
        0.0416666679084301
      ],
      "type": "SCALAR"
    },
    {
      "bufferView": 4,
      "byteOffset": 2880,
      "componentType": 5126,
      "count": 240,
      "max": [
        3.7198510938196705e-08,
        0.8510027527809143,
        -0.0
      ],
      "min": [
        2.852791425311807e-08,
        0.6526426076889038,
        -0.0
      ],
      "type": "VEC3"
    },
    {
      "bufferView": 3,
      "byteOffset": 2880,
      "componentType": 5126,
      "count": 241,
      "max": [
        10.0
      ],
      "min": [
        0.0
      ],
      "type": "SCALAR"
    },
    {
      "bufferView": 5,
      "byteOffset": 3840,
      "componentType": 5126,
      "count": 241,
      "max": [
        0.7071067690849304,
        0.7069705128669739,
        -3.0908619663705394e-08,
        0.7071067094802856
      ],
      "min": [
        -0.7069704532623291,
        -0.7071067690849304,
        -0.7071068286895752,
        3.0908616110991716e-08
      ],
      "type": "VEC4"
    }
  ],
  "animations": [
    {
      "channels": [
        {
          "sampler": 0,
          "target": {
            "node": 3,
            "path": "translation"
          }
        },
        {
          "sampler": 1,
          "target": {
            "node": 3,
            "path": "rotation"
          }
        }
      ],
      "name": "Action",
      "samplers": [
        {
          "input": 8,
          "interpolation": "LINEAR",
          "output": 9
        },
        {
          "input": 10,
          "interpolation": "LINEAR",
          "output": 11
        }
      ]
    },
    {
      "channels": [
        {
          "sampler": 0,
          "target": {
            "node": 3,
            "path": "translation"
          }
        },
        {
          "sampler": 1,
          "target": {
            "node": 3,
            "path": "rotation"
          }
        }
      ],
      "name": "DiscAction",
      "samplers": [
        {
          "input": 12,
          "interpolation": "LINEAR",
          "output": 13
        },
        {
          "input": 14,
          "interpolation": "LINEAR",
          "output": 15
        }
      ]
    }
  ],
  "asset": {
    "extras": {
      "author": "Mike3 117 (https://sketchfab.com/Mike.Llanas)",
      "license": "CC-BY-4.0 (http://creativecommons.org/licenses/by/4.0/)",
      "source": "https://sketchfab.com/3d-models/tron-disk-7fa47214a0514b96a34e89ba2cd9f9f7",
      "title": "TRON Disk"
    },
    "generator": "Sketchfab-14.5.0",
    "version": "2.0"
  },
  "bufferViews": [
    {
      "buffer": 0,
      "byteLength": 1203492,
      "name": "floatBufferViews",
      "target": 34963
    },
    {
      "buffer": 0,
      "byteLength": 581168,
      "byteOffset": 1203492,
      "byteStride": 8,
      "name": "floatBufferViews",
      "target": 34962
    },
    {
      "buffer": 0,
      "byteLength": 1743504,
      "byteOffset": 1784660,
      "byteStride": 12,
      "name": "floatBufferViews",
      "target": 34962
    },
    {
      "buffer": 0,
      "byteLength": 3844,
      "byteOffset": 3528164,
      "name": "floatBufferViews"
    },
    {
      "buffer": 0,
      "byteLength": 5760,
      "byteOffset": 3532008,
      "byteStride": 12,
      "name": "floatBufferViews"
    },
    {
      "buffer": 0,
      "byteLength": 7696,
      "byteOffset": 3537768,
      "byteStride": 16,
      "name": "floatBufferViews"
    }
  ],
  "buffers": [
    {
      "byteLength": 3545464,
      "uri": "scene.bin"
    }
  ],
  "extensionsUsed": [
    "KHR_materials_clearcoat"
  ],
  "materials": [
    {
      "doubleSided": true,
      "extensions": {
        "KHR_materials_clearcoat": {
          "clearcoatFactor": 0.6750496763418707,
          "clearcoatRoughnessFactor": 0.2544769660250393
        }
      },
      "name": "Metal",
      "pbrMetallicRoughness": {
        "baseColorFactor": [
          0.110689,
          0.110689,
          0.110689,
          1.0
        ],
        "roughnessFactor": 0.4373346661627921
      }
    },
    {
      "doubleSided": true,
      "emissiveFactor": [
        0.05367949455694131,
        0.5921480597883917,
        0.5685737312350737
      ],
      "name": "Leed",
      "pbrMetallicRoughness": {
        "baseColorFactor": [
          0.00454242,
          0.199155,
          0.8,
          1.0
        ],
        "metallicFactor": 0.0,
        "roughnessFactor": 0.5
      }
    }
  ],
  "meshes": [
    {
      "name": "Object_0",
      "primitives": [
        {
          "attributes": {
            "NORMAL": 1,
            "POSITION": 0,
            "TEXCOORD_0": 2
          },
          "indices": 3,
          "material": 0,
          "mode": 4
        }
      ]
    },
    {
      "name": "Object_1",
      "primitives": [
        {
          "attributes": {
            "NORMAL": 5,
            "POSITION": 4,
            "TEXCOORD_0": 6
          },
          "indices": 7,
          "material": 1,
          "mode": 4
        }
      ]
    }
  ],
  "nodes": [
    {
      "children": [
        1
      ],
      "matrix": [
        1.0,
        0.0,
        0.0,
        0.0,
        0.0,
        2.220446049250313e-16,
        -1.0,
        0.0,
        0.0,
        1.0,
        2.220446049250313e-16,
        0.0,
        0.0,
        0.0,
        0.0,
        1.0
      ],
      "name": "Sketchfab_model"
    },
    {
      "children": [
        2
      ],
      "name": "root"
    },
    {
      "children": [
        3
      ],
      "matrix": [
        1.0,
        0.0,
        0.0,
        0.0,
        0.0,
        2.220446049250313e-16,
        1.0,
        0.0,
        0.0,
        -1.0,
        2.220446049250313e-16,
        0.0,
        0.0,
        0.0,
        0.0,
        1.0
      ],
      "name": "GLTF_SceneRootNode"
    },
    {
      "children": [
        4,
        5
      ],
      "name": "Disc_2",
      "rotation": [
        0.0,
        0.0,
        0.0,
        0.0
      ],
      "translation": [
        0.0,
        0.0,
        0.0
      ]
    },
    {
      "mesh": 0,
      "name": "Object_4"
    },
    {
      "mesh": 1,
      "name": "Object_5"
    }
  ],
  "scene": 0,
  "scenes": [
    {
      "name": "Sketchfab_Scene",
      "nodes": [
        0
      ]
    }
  ]
}
